<svg version="1.1" xmlns="http://www.w3.org/2000/svg" xmlns:xlink="http://www.w3.org/1999/xlink" x="0px" y="0px" viewBox="0 0 100 100" height="22px" width="22px" style="enable-background:new 0 0 100 100;" xml:space="preserve" role="img">
  <path fill="#162577" className="st0" d="M50,1.1C23,1.1,1.1,23,1.1,50C1.1,77,23,98.9,50,98.9S98.9,77,98.9,50C98.9,23,77,1.1,50,1.1z M79.7,33.6 L41.8,80.4c-0.1,0.1-0.2,0.1-0.3,0.1c0,0,0,0,0,0c-0.1,0-0.2,0-0.3-0.1L19.6,59c-0.1-0.1-0.1-0.4,0-0.5l8.2-9.1 c0.1-0.1,0.2-0.1,0.3-0.1c0.1,0,0.2,0,0.3,0.1l12.2,12.1L70,25.1c0.1-0.1,0.2-0.1,0.3-0.1c0.1,0,0.2,0,0.3,0.1l9.1,8.1 C79.8,33.2,79.9,33.5,79.7,33.6z"/>
</svg>
