<?xml version="1.0" encoding="UTF-8" standalone="no"?>
<!-- Created with Inkscape (http://www.inkscape.org/) -->

<svg
   xmlns:dc="http://purl.org/dc/elements/1.1/"
   xmlns:cc="http://creativecommons.org/ns#"
   xmlns:rdf="http://www.w3.org/1999/02/22-rdf-syntax-ns#"
   xmlns:svg="http://www.w3.org/2000/svg"
   xmlns="http://www.w3.org/2000/svg"
   xmlns:sodipodi="http://sodipodi.sourceforge.net/DTD/sodipodi-0.dtd"
   xmlns:inkscape="http://www.inkscape.org/namespaces/inkscape"
   version="1.1"
   id="svg2"
   xml:space="preserve"
   width="23.9984"
   height="24"
   viewBox="0 0 23.9984 24"
   sodipodi:docname="linkedin.svg"
   inkscape:version="0.92.3 (2405546, 2018-03-11)"><metadata
     id="metadata8"><rdf:RDF><cc:Work
         rdf:about=""><dc:format>image/svg+xml</dc:format><dc:type
           rdf:resource="http://purl.org/dc/dcmitype/StillImage" /><dc:title></dc:title></cc:Work></rdf:RDF></metadata><defs
     id="defs6" /><sodipodi:namedview
     pagecolor="#ffffff"
     bordercolor="#666666"
     borderopacity="1"
     objecttolerance="10"
     gridtolerance="10"
     guidetolerance="10"
     inkscape:pageopacity="0"
     inkscape:pageshadow="2"
     inkscape:window-width="640"
     inkscape:window-height="480"
     id="namedview4"
     showgrid="false"
     inkscape:zoom="9.8333333"
     inkscape:cx="13.860339"
     inkscape:cy="12"
     inkscape:window-x="556"
     inkscape:window-y="335"
     inkscape:window-maximized="0"
     inkscape:current-layer="g10" /><g
     id="g10"
     inkscape:groupmode="layer"
     inkscape:label="ink_ext_XXXXXX"
     transform="matrix(1.3333333,0,0,-1.3333333,0,23.999999)"><path
       inkscape:connector-curvature="0"
       id="path14"
       style="fill:#0977b6;fill-opacity:1;fill-rule:nonzero;stroke:none;stroke-width:0.1"
       d="M 16.6672,18 H 1.32734 C 0.594922,18 0,17.4191 0,16.7023 V 1.29883 C 0,0.582031 0.594922,0 1.32734,0 H 16.6672 c 0.7344,0 1.3316,0.582031 1.3316,1.29883 V 16.7023 C 17.9988,17.4191 17.4016,18 16.6672,18" /><path
       inkscape:connector-curvature="0"
       id="path16"
       style="fill:#ffffff;fill-opacity:1;fill-rule:nonzero;stroke:none;stroke-width:0.1"
       d="m 4.00391,15.5219 c 0.85351,0 1.54687,-0.6938 1.54687,-1.5485 0,-0.8543 -0.69336,-1.548 -1.54687,-1.548 -0.85743,0 -1.55,0.6937 -1.55,1.548 0,0.8547 0.69257,1.5485 1.55,1.5485 M 2.66602,11.252 H 5.33906 V 2.66211 H 2.66602 V 11.252" /><path
       inkscape:connector-curvature="0"
       id="path18"
       style="fill:#ffffff;fill-opacity:1;fill-rule:nonzero;stroke:none;stroke-width:0.1"
       d="m 7.01367,11.252 h 2.5586 v -1.1743 h 0.03711 c 0.35664,0.6754 1.22652,1.3871 2.52542,1.3871 2.7043,0 3.2031,-1.77847 3.2031,-4.09175 V 2.66211 h -2.6691 v 4.17773 c 0,0.9961 -0.0172,2.27735 -1.3875,2.27735 -1.38872,0 -1.60083,-1.08594 -1.60083,-2.20625 V 2.66211 H 7.01367 V 11.252" /></g></svg>