<?xml version="1.0" encoding="UTF-8" standalone="no"?>
<!-- Created with Inkscape (http://www.inkscape.org/) -->

<svg
   xmlns:dc="http://purl.org/dc/elements/1.1/"
   xmlns:cc="http://creativecommons.org/ns#"
   xmlns:rdf="http://www.w3.org/1999/02/22-rdf-syntax-ns#"
   xmlns:svg="http://www.w3.org/2000/svg"
   xmlns="http://www.w3.org/2000/svg"
   xmlns:sodipodi="http://sodipodi.sourceforge.net/DTD/sodipodi-0.dtd"
   xmlns:inkscape="http://www.inkscape.org/namespaces/inkscape"
   width="11.13991mm"
   height="11.404631mm"
   viewBox="0 0 11.13991 11.404631"
   version="1.1"
   id="svg101"
   inkscape:version="0.92.3 (2405546, 2018-03-11)"
   sodipodi:docname="psu.svg">
  <defs
     id="defs95" />
  <sodipodi:namedview
     id="base"
     pagecolor="#ffffff"
     bordercolor="#666666"
     borderopacity="1.0"
     inkscape:pageopacity="0.0"
     inkscape:pageshadow="2"
     inkscape:zoom="7.9195959"
     inkscape:cx="22.310618"
     inkscape:cy="12.809932"
     inkscape:document-units="mm"
     inkscape:current-layer="layer1"
     showgrid="false"
     inkscape:window-width="1920"
     inkscape:window-height="1145"
     inkscape:window-x="0"
     inkscape:window-y="27"
     inkscape:window-maximized="1" />
  <metadata
     id="metadata98">
    <rdf:RDF>
      <cc:Work
         rdf:about="">
        <dc:format>image/svg+xml</dc:format>
        <dc:type
           rdf:resource="http://purl.org/dc/dcmitype/StillImage" />
        <dc:title></dc:title>
      </cc:Work>
    </rdf:RDF>
  </metadata>
  <g
     inkscape:label="Layer 1"
     inkscape:groupmode="layer"
     id="layer1"
     transform="translate(-57.930049,-93.238159)">
    <path
       inkscape:connector-curvature="0"
       id="path14"
       style="fill:#658c14;fill-opacity:1;fill-rule:nonzero;stroke:none;stroke-width:0.03527778"
       d="m 66.749069,96.844747 c 0,0 -0.90728,0 -0.93804,0 0,-0.03196 0,-1.285981 0,-1.285981 0,-1.279525 -1.04122,-2.320607 -2.32061,-2.320607 -1.27963,0 -2.32075,1.041082 -2.32075,2.320607 0,0 0,1.25402 0,1.285981 -0.0305,0 -0.91929,0 -0.91929,0 -1.27923,0 -2.32033,1.040836 -2.32033,2.321736 0,1.278117 1.0411,2.319227 2.32033,2.319227 0,0 0.88884,0 0.91929,0 0,0.031 0,0.83785 0,0.83785 0,1.28019 1.04112,2.31923 2.32075,2.31923 1.27939,0 2.32061,-1.03904 2.32061,-2.31923 0,0 0,-0.80685 0,-0.83785 0.0308,0 0.93804,0 0.93804,0 1.2791,0 2.32089,-1.04111 2.32089,-2.319227 0,-1.2809 -1.04179,-2.321736 -2.32089,-2.321736 z m -4.69675,-1.285981 c 0,-0.792797 0.64435,-1.437287 1.43743,-1.437287 0.80271,0 1.4563,0.633201 1.4563,1.413863 0,0.791669 -0.65359,1.437287 -1.4563,1.437287 h -0.17159 v -0.703192 h 0.17159 c 0.40788,0 0.75255,-0.33655 0.75255,-0.734095 0,-0.392042 -0.33765,-0.711059 -0.75255,-0.711059 -0.40502,0 -0.73423,0.330024 -0.73423,0.734483 v 2.749868 l -0.7032,0.572593 z m 2.87525,6.764794 c 0,0.79237 -0.64491,1.43798 -1.43782,1.43798 -0.79308,0 -1.43743,-0.64561 -1.43743,-1.43798 v -0.89435 h 0.7032 v 0.89435 c 0,0.40514 0.32921,0.73518 0.73423,0.73518 0.40471,0 0.73434,-0.33004 0.73434,-0.73518 v -2.29997 l 0.70348,-0.564972 z m 1.82192,-1.7205 h -0.95321 v -0.704175 h 0.95321 c 0.40527,0 0.73434,-0.328648 0.73434,-0.732402 0,-0.406541 -0.32907,-0.735612 -0.73434,-0.735612 h -1.39418 c -0.18739,0 -0.35719,0.05486 -0.58607,0.188807 -0.0433,0.0241 -0.20754,0.145097 -0.26649,0.192652 -1.40148,1.125855 -1.61688,1.29879 -1.63424,1.31258 -0.0558,0.0441 -0.19731,0.15155 -0.29446,0.20461 -0.26335,0.16055 -0.5442,0.25841 -0.81266,0.27354 h -1.51211 c -0.79237,0 -1.4377,-0.644908 -1.4377,-1.436577 0,-0.79375 0.64533,-1.438698 1.4377,-1.438698 h 0.95112 v 0.703086 h -0.95112 c -0.40514,0 -0.73435,0.329071 -0.73435,0.735612 0,0.403754 0.32921,0.732402 0.73435,0.732402 0,0 1.45919,-0.0014 1.45824,-0.0014 0.16552,-0.009 0.33471,-0.06956 0.53178,-0.190848 l 0.18947,-0.134338 c 0,0 1.62804,-1.311487 1.62941,-1.310111 0.002,-0.0022 0.25369,-0.202318 0.38915,-0.271886 0.30702,-0.179422 0.59546,-0.262537 0.90798,-0.262537 h 1.39418 c 0.79319,0 1.43785,0.644948 1.43785,1.438698 0,0.791669 -0.64466,1.436577 -1.43785,1.436577" />
  </g>
</svg>
