<?xml version="1.0" encoding="UTF-8" standalone="no"?>
<!-- Created with Inkscape (http://www.inkscape.org/) -->

<svg
   xmlns:dc="http://purl.org/dc/elements/1.1/"
   xmlns:cc="http://creativecommons.org/ns#"
   xmlns:rdf="http://www.w3.org/1999/02/22-rdf-syntax-ns#"
   xmlns:svg="http://www.w3.org/2000/svg"
   xmlns="http://www.w3.org/2000/svg"
   xmlns:sodipodi="http://sodipodi.sourceforge.net/DTD/sodipodi-0.dtd"
   xmlns:inkscape="http://www.inkscape.org/namespaces/inkscape"
   id="svg2"
   version="1.1"
   inkscape:version="0.91 r13725"
   width="665"
   height="212.5"
   viewBox="0 0 665 212.5"
   sodipodi:docname="shadowcat_vector.svg">
  <metadata
     id="metadata8">
    <rdf:RDF>
      <cc:Work
         rdf:about="">
        <dc:format>image/svg+xml</dc:format>
        <dc:type
           rdf:resource="http://purl.org/dc/dcmitype/StillImage" />
        <dc:title></dc:title>
      </cc:Work>
    </rdf:RDF>
  </metadata>
  <defs
     id="defs6" />
  <sodipodi:namedview
     pagecolor="#ffffff"
     bordercolor="#666666"
     borderopacity="1"
     objecttolerance="10"
     gridtolerance="10"
     guidetolerance="10"
     inkscape:pageopacity="0"
     inkscape:pageshadow="2"
     inkscape:window-width="1920"
     inkscape:window-height="1017"
     id="namedview4"
     showgrid="false"
     inkscape:zoom="1.2589691"
     inkscape:cx="424.86936"
     inkscape:cy="164.21447"
     inkscape:window-x="-8"
     inkscape:window-y="-8"
     inkscape:window-maximized="1"
     inkscape:current-layer="svg2" />
  <path
     style="fill:#000000;fill-rule:evenodd;stroke:#000000;stroke-width:1px;stroke-linecap:butt;stroke-linejoin:miter;stroke-opacity:1"
     d="m 561.63545,85.812635 c 0,0 0.15902,2.729194 0.82571,4.39786 0.94011,2.353011 -0.13496,6.636461 -1.7193,9.399691 -2.04434,3.565514 -6.34993,5.228974 -9.34665,8.041794 -2.52049,2.36583 -8.14551,4.09278 -7.24749,7.41784 1.60636,5.9478 7.92742,11.5585 13.04852,16.25394 8.53114,7.82204 19.70621,12.22488 28.8571,19.3119 6.25475,4.84406 11.45544,10.95637 17.71447,15.7949 3.11548,2.40842 6.18073,5.23686 9.82948,6.55298 21.55218,7.77396 18.20414,3.72125 24.52403,10.92163 1.9995,2.27808 -2.57405,3.78132 -4.86509,4.17009 -5.57161,0.94543 -10.44763,-0.60685 -15.48887,-1.88647 -5.24207,-1.33059 -15.0917,-5.95726 -15.0917,-5.95726 -0.44995,-0.30047 -16.0932,-12.97526 -31.57346,-17.67319 -6.8152,-2.06826 -9.44488,-8.64768 -14.79385,-12.11308 -4.96874,-3.21906 -10.81978,-4.87968 -15.88602,-7.94301 -6.10719,-3.69275 -10.85918,-9.59919 -17.37532,-12.51023 -4.08385,-1.82443 -8.63803,-2.66977 -13.10596,-2.87934 -8.92687,-0.41873 -24.95047,2.2139 -26.60908,3.27648 -1.89338,1.21299 0.9425,3.81677 0.89359,5.75868 -0.0945,3.75049 -3.68425,7.33821 -2.28361,11.02093 3.48289,9.15764 2.40172,21.72322 7.54586,26.60907 2.25953,2.14609 2.82644,2.1438 5.14043,3.25041 3.00499,1.43706 7.46732,3.36748 11.35214,6.28619 1.69316,1.27208 5.14188,5.58499 2.17349,5.85298 -10.3392,0.93343 -16.10694,0.30429 -26.21192,-2.87935 -3.55848,-1.12112 -3.34694,-8.01788 -5.85798,-11.51736 -1.63895,-2.28411 -4.59117,-3.5688 -5.89702,-6.02952 -6.61896,-16.21122 -8.46268,-31.85951 -13.26548,-47.2879 0,0 -38.20115,2.02171 -59.37397,3.77292 -6.56698,0.54315 -14.74709,-4.3848 -19.46037,-3.47506 -8.51993,1.64448 -7.12422,2.70586 -17.8119,6.44943 -10.3677,3.63149 -31.77087,12.05577 -40.17204,11.72019 -2.45718,-0.0982 -5.27826,-4.34897 -7.64516,-2.97862 -3.64967,2.11302 -4.39666,9.12145 -1.88646,12.51023 5.25103,7.08887 16.71942,15.13048 23.53115,20.45324 4.67727,3.65486 12.56297,-0.83566 17.6732,2.18433 1.6528,0.97676 3.47114,2.74904 3.37578,4.66652 -0.13624,2.73958 -2.73122,5.88533 -5.46082,6.15583 -7.75435,0.76844 -10.45161,0.0944 -20.55253,-1.19146 -10.74589,-3.20911 -17.93502,-12.22732 -26.80765,-19.36107 -3.87486,-3.04739 -8.89227,-4.33113 -11.02092,-8.43945 -0.23027,-5.15973 -1.57175,-14.35884 2.18433,-19.85751 3.51532,-5.14622 14.96804,-10.37918 13.80097,-12.41095 -2.27381,-3.95849 -9.98119,-0.97465 -16.48174,0.39715 -9.52403,2.00984 -20.17905,9.00402 -28.86567,9.11037 -15.97012,0.19551 -22.27652,0.59839 -39.24561,1.81127 -7.67163,0.36371 -15.07647,1.76957 -20.70146,1.39001 -1.81598,-0.12253 -1.13176,-0.77769 -3.42409,5.23126 -2.29234,6.00896 -9.08159,12.54957 -11.71727,19.39207 -0.94753,2.45987 -0.49655,3.44578 0.39715,4.7658 2.32339,3.43173 8.00544,3.52851 10.25218,6.06007 2.64994,2.98588 -0.0757,8.09978 -2.95454,10.62025 -2.21081,1.93561 -8.93474,4.51961 -13.90879,-2.08504 -2.29787,-3.05117 -7.03338,-3.17092 -8.93381,-6.27422 -1.80111,-2.94112 -2.18674,-6.87479 -1.44818,-10.24452 1.62144,-7.39791 2.08054,-17.04736 3.93536,-20.65801 3.64033,-7.08639 11.2175,-17.67995 13.23433,-20.99373 0.65053,-1.06888 15.90108,1.04974 29.94286,-5.47992 4.21336,-1.95928 9.35037,-15.82289 17.5407,-20.124231 2.19148,-1.150909 8.55302,-10.58228 10.42313,-15.612243 0.71964,-1.935591 -33.57275,10.326589 -50.90097,12.646516 -20.02219,2.6806 -40.88501,4.957523 -60.58695,1.372991 -21.377,-3.889289 -42.8141,-7.451515 -62.934216,-10.464256 -3.841213,-0.575175 -13.104201,-3.958945 -19.797289,-5.347418 -7.823219,-1.622917 -22.87037,-3.36784 -23.716831,-3.470075 -0.846461,-0.102235 11.008573,-3.679964 16.728497,-4.418298 11.094852,-1.432135 22.421983,-0.9879 33.560666,0.04964 12.318881,1.147473 24.216573,5.226664 36.488183,6.8012 12.73599,1.63412 25.59414,3.242907 38.4243,2.730409 20.25339,-0.809017 40.69203,-3.349902 60.11863,-9.134459 15.31327,-4.559749 30.7863,-13.192783 43.60903,-19.89572 20.80263,-10.874336 41.48233,-22.101487 64.16765,-26.968021 22.40306,-4.805983 46.04574,-3.157668 67.91271,0.397151 15.8318,2.573708 33.87346,8.783628 49.74308,13.403824 9.71189,2.827465 20.02666,3.969129 30.18342,4.666516 10.74482,0.737765 25.54127,1.391185 32.64688,2.428517 7.98623,1.165894 7.09419,3.67489 14.62108,5.572652 9.41371,2.373488 20.3792,1.059521 28.2899,2.920466 1.13783,-0.08771 2.6847,-0.0171 3.27649,-0.992876 2.41006,-3.973867 -2.81337,-9.059892 -2.58148,-13.701686 0.11704,-2.34292 0.0414,-5.439171 1.98575,-6.751556 2.82975,-1.909975 8.00784,-1.078064 10.19359,0.994942 3.96369,3.759223 7.07306,7.6842 14.82688,10.621705 3.00989,1.140285 6.72427,-0.304264 10.02805,-0.893588 4.1178,-0.734528 7.93039,-3.247523 12.11309,-3.276491 6.01211,-0.04164 11.58078,5.655326 17.47462,4.467942 6.96671,-1.403528 9.98701,-11.713101 16.99934,-12.867294 1.02557,-0.168804 1.60393,-0.08841 2.9582,0.985759 2.74623,2.559874 3.43148,3.983893 2.82029,9.229591 -0.38554,3.309044 -1.46572,6.133969 -1.93949,6.709658 -1.69737,2.062514 -4.1663,4.790054 -4.25732,7.459648 1.42682,4.533059 2.46007,4.433272 2.26687,6.863394 -0.19772,2.48691 -0.7374,7.220154 -1.22435,10.114782 -1.00476,5.97271 -5.96205,10.458195 -10.37555,14.396701 -7.02025,6.264715 -15.95827,9.87976 -24.62333,13.800972 -1.78,0.805506 -3.99106,0.672556 -5.85796,0.09929 -9.11695,-2.799542 -24.18095,-14.581435 -26.34564,-13.698089 z"
     id="path4138"
     inkscape:connector-curvature="0"
     sodipodi:nodetypes="ssaasaaasssacsaaaasassssssaccssssassaascccsssscsssssssassssssassazaaaaassssssscaaassaaaacsscssasss" />
</svg>
